<svg width="956" height="1051" viewBox="0 0 956 1051" fill="none" xmlns="http://www.w3.org/2000/svg">
<path d="M433.782 19.6655C434.716 19.5322 436.316 30.1991 437.916 46.8657L440.449 74.1987L436.449 75.3989C399.383 86.0656 372.183 117.666 362.85 160.866C359.516 176.466 359.516 215.532 362.85 236.199C369.916 279.132 384.05 323.265 408.583 378.199C414.048 390.196 418.447 400.461 418.449 400.999C418.449 402.599 392.716 416.999 391.782 415.932C391.381 415.263 384.449 405.798 376.583 394.599C347.783 354.066 308.85 310.466 282.316 289.132C258.717 270.199 232.049 254.733 211.116 247.799C189.116 240.466 163.116 238.732 144.85 243.399C107.383 252.999 72.1827 289.266 59.6494 330.866C56.0494 342.732 54.7158 371.133 56.9824 384.333C66.1825 436.732 116.716 475.399 205.116 497.265C237.916 505.532 285.649 513.132 323.516 516.199L334.449 517.132V531.666C334.449 548.332 335.916 546.732 318.449 548.199C272.583 552.065 213.516 563.132 177.116 574.866C106.583 597.666 66.1829 632.866 57.1162 679.266C54.7163 691.4 56.0495 720.332 59.6494 732.199C69.7827 765.932 95.9157 798.732 123.782 812.866C138.449 820.332 149.516 822.732 167.782 822.732C187.249 822.865 199.25 820.465 219.116 812.732C266.583 794.332 318.316 748.198 371.649 676.732C380.183 665.265 388.316 654.332 389.782 652.199L392.449 648.465L404.716 654.599C411.382 658.065 417.247 661.398 417.782 662.199C418.316 662.999 414.849 672.199 410.049 682.599C385.916 734.999 369.25 786.466 363.116 827.533C359.65 850.466 359.116 877.8 361.649 895.266C367.516 934.599 385.916 963.933 415.916 981.266C435.649 992.733 469.116 997.932 499.782 994.199C552.982 987.665 583.382 958.199 593.249 903.533C596.316 887.266 595.516 842.599 591.916 822.999C583.516 776.065 563.516 717.533 540.316 671.266L535.916 662.465L548.982 655.666C556.316 651.932 562.583 648.866 562.85 648.866C563.252 648.869 568.184 655.268 573.916 663.132C628.316 738.999 683.383 790.598 731.916 810.999C751.516 819.265 766.183 822.465 785.116 822.732C803.916 822.865 811.649 821.399 825.916 814.866C851.649 803.132 876.582 777.932 889.249 751.132C902.582 722.332 903.516 682.866 891.249 656.066C865.916 600.866 783.249 564.066 653.116 550.066C638.85 548.599 625.783 546.999 624.183 546.732C621.249 546.199 621.116 545.665 621.116 531.666V517.266L637.516 515.666C722.316 507.399 793.65 488.732 836.05 463.666C863.783 447.399 880.582 430.066 891.249 406.866C897.516 393.132 899.782 382.599 899.782 365.399C899.782 349.132 898.316 339.132 894.183 326.465C892.716 321.799 891.783 317.799 891.916 317.666C895.25 314.732 940.316 292.866 941.116 293.666C942.983 295.799 949.249 314.466 951.916 326.199C955.383 340.999 956.583 371.132 954.583 386.599C946.45 447.799 904.582 494.999 829.516 528.066C824.849 530.066 821.116 532.199 821.116 532.866C821.116 533.399 823.116 534.599 825.383 535.399C832.583 537.932 862.316 554.733 875.383 563.799C929.116 600.733 955.782 645.533 955.782 699.266C955.782 747.133 937.516 791.532 902.85 827.666C895.916 834.866 885.916 844.066 880.716 848.066C854.716 867.799 822.983 878.199 788.583 878.199C742.316 878.065 700.316 863.266 664.85 834.333C658.45 829.133 652.982 824.866 652.716 824.866C652.316 824.87 651.783 841.535 651.383 861.932C650.716 900.332 649.249 912.865 643.516 932.199C627.916 984.865 585.116 1027.93 533.782 1042.87C482.449 1057.67 419.649 1050.07 380.183 1024.07C368.049 1015.93 348.449 996.199 339.649 983.132C315.516 946.999 306.583 909.266 306.449 843.132C306.449 833.133 306.183 824.867 305.916 824.866C305.516 824.866 297.916 829.666 289.116 835.399C260.183 854.332 226.716 869.132 199.782 874.999C182.715 878.732 149.782 878.465 134.049 874.465C85.1157 862.199 42.5827 827.132 19.6494 780.199C6.44946 752.999 1.24928 733.532 0.182617 706.465C-2.48395 646.065 24.0493 598.332 80.4492 561.399C90.3159 554.999 119.116 539.932 130.982 534.999L136.183 532.866L119.649 524.465C55.3829 491.799 17.3827 451.266 4.18262 401.533C0.982624 389.666 0.58301 385.666 0.583008 364.866C0.449674 338.999 1.64967 330.599 8.58301 308.866C16.983 282.466 30.8497 259.798 52.3164 237.265C86.1829 201.666 122.849 185.666 169.782 185.799C209.382 185.933 245.916 198.732 287.916 226.999L306.449 239.533V216.465C306.449 164.332 311.649 134.465 325.249 107.265C344.982 67.6653 380.316 37.1318 422.583 22.9985C428.048 21.1323 433.114 19.6661 433.782 19.6655ZM588.449 1.66553C610.449 -2.60103 634.849 1.39913 658.049 12.8657C679.915 23.6657 693.649 39.2657 702.449 63.1323C706.716 75.1322 710.449 95.1319 710.449 106.465C710.449 110.732 710.716 114.199 710.982 114.199C711.384 114.198 716.45 110.999 722.449 107C741.916 93.9328 762.182 87.1328 781.782 86.9995C796.849 86.8662 805.249 88.9987 820.449 96.1987C856.449 113.532 877.249 146.466 877.382 186.866C877.515 224.866 860.849 257.133 830.449 277.266C805.116 294.066 738.049 323.399 670.449 347.266C631.783 360.999 582.582 376.866 578.849 376.866C577.115 376.866 572.582 375.266 568.582 373.266L561.382 369.799L553.916 342.333C536.449 277.799 519.516 207.799 511.916 168.866C499.783 106.599 500.315 88.3324 514.582 58.5991C519.782 47.6658 523.116 42.9992 531.782 33.7993C548.716 15.9326 566.716 5.66553 588.449 1.66553Z" fill="white"/>
</svg>
