<svg width="468" height="431" viewBox="0 0 468 431" fill="white" xmlns="http://www.w3.org/2000/svg">
<path d="M216.45 1.2998C227.784 -0.966862 249.117 -0.166276 260.317 2.90039C278.451 7.70046 297.383 20.6339 306.983 34.3672C311.383 40.9003 313.117 42.2333 320.184 44.7666C357.517 58.2333 388.85 84.9003 405.25 117.167C416.183 138.634 422.45 166.9 422.45 195.3V211.7L430.45 220.233C446.184 237.167 456.717 254.1 463.25 273.434C468.05 287.834 469.251 312.633 465.784 328.233C459.251 357.833 440.05 388.633 412.717 413.3C397.117 427.566 392.184 430.5 385.384 429.7C375.784 428.634 369.25 420.1 370.983 410.9C371.917 406.234 372.717 405.3 388.45 391.3C428.984 355.433 444.584 314.366 430.851 279.3C425.117 264.633 415.917 251.567 400.717 236.634L387.65 223.7L389.25 212.634C391.517 197.3 390.051 174.1 386.051 157.967C373.784 110.1 333.517 75.4333 282.45 68.7666C276.184 67.9667 269.518 67.0338 267.518 66.6338L263.917 65.9668L268.317 61.9668C270.851 59.8334 273.917 55.9664 275.117 53.2998C278.184 46.7666 276.317 42.7669 268.717 39.4336C260.85 35.967 240.184 33.5666 227.117 34.7666C193.784 37.5666 184.051 45.9665 197.917 59.833C203.517 65.433 204.184 65.0329 186.45 68.0996C123.517 79.1663 85.5175 117.833 78.3174 178.1C76.8507 190.5 77.5171 208.5 79.6504 218.5C80.8504 223.3 80.85 223.3 65.25 239.033C44.4501 260.366 36.1839 274.634 32.8506 295.967C29.9173 315.033 35.6509 335.967 49.7842 357.7C57.6508 369.7 76.0501 389.7 86.7168 397.833C90.4501 400.5 94.1833 404.367 95.25 406.367C100.85 417.167 92.9834 430.101 80.7168 430.101C71.3831 430.1 43.3838 404.9 26.584 381.3C9.91741 357.833 1.51695 335.433 0.183594 311.434C-1.54973 278.5 8.85034 252.767 36.7168 221.167L45.1172 211.7L45.6504 191.167C46.5837 154.9 54.717 127.434 72.1836 101.434C88.3169 77.5669 117.651 55.4333 147.518 44.7666C154.317 42.2334 156.718 40.6328 159.784 36.0996C171.518 18.8999 192.584 6.09979 216.45 1.2998ZM294.717 292.9C316.183 282.367 331.383 300.367 334.983 340.634L336.45 357.3L345.384 349.7C356.717 340.1 362.983 339.434 367.25 347.7C369.117 351.3 368.983 351.967 366.85 356.5C363.916 362.5 346.717 376.5 332.983 384.233C321.383 390.767 302.45 398.366 290.85 401.3C268.45 407.166 237.916 409.033 216.316 405.967C180.583 401.033 144.984 383.966 131.117 365.033C125.651 357.567 125.25 352.633 129.783 348.1C134.583 343.3 140.45 343.7 144.85 349.033C164.05 372.367 198.317 386.1 237.25 386.1H251.65L252.45 381.033C255.25 363.3 256.583 357.3 260.583 344.9C268.85 319.567 282.317 299.034 294.717 292.9ZM157.517 115.967C175.783 109.967 199.25 120.9 212.45 141.434C222.983 157.833 227.117 175.567 226.184 199.3C225.117 223.3 217.25 243.3 203.25 257.3C174.85 285.566 134.983 272.766 118.05 230.1C113.517 218.5 111.783 208.233 111.783 192.9C111.783 156.1 130.45 124.767 157.517 115.967ZM292.983 115.834C306.717 111.967 325.384 117.434 336.851 128.634C369.384 160.367 369.784 225.3 337.784 257.3C327.384 267.7 317.784 271.967 304.45 271.967C294.984 272.1 292.717 271.567 284.851 267.7C268.851 259.834 255.384 241.434 249.518 219.434C247.784 213.3 247.117 205.7 247.117 193.434C247.117 173.567 249.117 164.234 256.45 149.167C264.583 132.501 278.45 119.967 292.983 115.834ZM178.184 129.434C169.917 127.034 167.65 127.033 159.517 129.566C145.383 133.966 131.516 152.634 127.116 173.434C122.05 197.433 127.65 228.366 139.649 242.1L142.45 245.434L141.517 241.434C139.383 233.167 140.583 212.5 143.517 204.767C150.717 186.367 166.05 177.7 179.517 184.634C186.45 188.234 190.983 193.433 195.383 202.767C198.849 210.1 199.116 212.1 199.116 226.366C199.116 234.9 199.65 241.166 200.184 240.366C215.917 217.433 217.383 178.5 203.649 152.634C197.916 142.101 186.984 132.1 178.184 129.434ZM318.317 131.3C291.384 117.7 262.717 145.701 260.184 188.101C258.984 207.701 265.117 230.901 274.584 242.101L277.384 245.434L276.584 242.101C271.384 220.501 278.05 196.367 291.65 186.767C296.45 183.433 298.584 182.767 304.983 182.767C311.383 182.767 313.518 183.433 317.518 186.5C329.117 195.3 334.584 207.967 334.584 225.967C334.584 232.367 334.184 238.767 333.65 240.101C331.384 245.7 335.651 240.367 339.518 232.367C350.851 209.434 350.85 177.567 339.65 154.767C335.117 145.567 325.517 135.033 318.317 131.3Z" fill="white"/>
</svg>
