<svg width="1280" height="1397" viewBox="0 0 1280 1397" fill="none" xmlns="http://www.w3.org/2000/svg">
<path d="M611.125 0.849121C629.792 -1.01753 665.925 0.315646 685.125 3.64893C756.858 15.9156 817.258 61.7825 848.325 127.649C866.325 166.049 870.458 188.316 871.658 256.583L872.459 305.116L889.125 292.049C910.458 275.383 924.059 266.582 942.059 257.649C996.058 230.716 1064.33 224.183 1117.12 241.116C1148.86 251.249 1174.33 267.249 1200.59 293.382C1224.73 317.649 1240.33 338.983 1254.59 367.516C1286.06 430.716 1287.79 503.783 1259.26 560.45C1233.66 611.516 1185.39 654.316 1112.86 690.316C1104.86 694.316 1098.46 697.782 1098.46 698.316C1098.46 698.716 1107.79 703.516 1119.26 708.849C1189.39 742.049 1234.46 781.65 1258.99 831.917C1282.86 880.85 1286.06 943.383 1267.79 1000.85C1262.33 1017.92 1245.79 1050.72 1235.12 1065.65C1190.33 1128.18 1133.13 1162.18 1066.86 1165.65C1014.06 1168.45 956.992 1148.72 891.125 1104.98C881.658 1098.72 873.392 1093.38 872.992 1093.12C872.459 1092.98 871.792 1112.45 871.392 1136.45C870.458 1193.92 866.459 1220.98 853.525 1255.52C834.592 1306.32 798.992 1348.32 755.926 1370.72C732.459 1382.85 708.058 1390.45 679.125 1394.45C662.991 1396.58 618.192 1396.58 603.125 1394.45C550.859 1386.72 510.992 1366.98 474.992 1330.98C422.459 1278.32 403.392 1217.78 408.992 1120.32C409.792 1105.65 410.325 1093.65 410.059 1093.38C409.92 1093.12 402.989 1098.05 394.726 1104.18C332.459 1150.58 265.792 1171.65 202.726 1164.72C138.592 1157.78 81.3918 1120.72 40.5918 1059.78C17.3919 1025.12 4.99223 989.383 0.992188 946.183C-8.07448 847.383 44.9923 768.583 160.726 709.25L182.192 698.183L154.059 684.316C75.2588 645.516 30.1923 600.049 10.459 539.516C2.99232 516.849 0.72513 501.516 0.591797 474.849C0.458492 438.049 6.45896 410.583 22.7256 373.516C55.6589 298.583 128.058 242.183 203.125 232.983C257.925 226.316 320.459 245.916 389.125 291.382C399.792 298.449 408.993 304.45 409.659 304.716C410.325 304.98 410.326 299.914 409.659 292.049C407.659 270.583 408.459 223.783 410.992 203.783C418.992 141.783 442.859 92.3162 482.325 55.2495C515.258 24.4496 558.058 6.31583 611.125 0.849121ZM673.125 75.6489C605.659 66.7157 548.058 85.3833 517.392 125.917C502.725 145.516 490.725 172.983 485.792 198.45C477.392 241.783 483.125 304.583 501.125 368.316C513.392 411.649 534.058 465.516 555.658 510.049C558.724 516.315 560.725 521.781 560.192 522.316C558.459 523.916 526.859 540.849 525.525 540.849C524.992 540.849 521.792 536.716 518.459 531.783C507.526 515.516 476.859 475.249 459.926 454.849C439.259 429.916 393.259 383.783 373.792 368.316C332.725 335.516 294.592 316.183 256.592 308.583C239.125 305.116 212.859 304.983 197.792 308.183C158.592 316.45 123.925 344.183 97.125 388.716C70.4585 433.25 66.5917 490.05 87.125 533.917C121.125 606.183 225.526 653.516 394.992 673.382C410.459 675.249 428.325 677.116 434.858 677.649L446.459 678.583V719.116L428.858 720.716C355.259 727.65 286.059 740.983 234.192 758.183C119.792 796.316 67.2585 856.183 74.5918 940.183C78.3252 983.25 94.7252 1017.25 126.858 1048.45C168.325 1088.85 211.125 1100.45 267.392 1086.85C341.525 1068.98 420.059 1002.45 502.325 887.783C511.792 874.583 520.592 861.916 521.926 859.649C523.259 857.383 524.858 855.517 525.392 855.516C526.458 855.516 558.592 873.782 560.192 875.382C560.726 875.916 557.926 883.249 553.926 891.649C515.926 972.316 490.992 1052.18 483.792 1116.85C481.259 1138.32 481.926 1175.25 484.992 1192.85C492.059 1233.92 511.392 1270.05 537.392 1290.72C556.458 1305.92 579.392 1315.92 605.792 1320.32C621.792 1322.98 656.859 1323.38 672.459 1320.98C707.526 1315.65 734.459 1303.25 754.459 1283.25C786.192 1251.65 800.726 1199.12 796.992 1130.85C793.259 1064.45 768.991 981.916 727.658 895.649C722.592 884.983 718.858 875.916 719.392 875.382C720.992 873.916 753.256 855.518 754.325 855.516C754.859 855.516 756.325 857.383 757.658 859.516C758.992 861.783 766.992 873.383 775.525 885.25C852.592 992.849 924.992 1057.78 995.125 1081.92C1067.66 1106.85 1128.19 1086.72 1173.93 1022.58C1202.06 983.249 1212.33 932.183 1201.26 888.183C1197.39 873.117 1185.53 850.183 1174.73 836.716C1138.19 791.65 1067.66 757.916 967.125 737.649C930.992 730.316 880.592 723.249 842.858 720.049L831.792 719.116V678.849L860.858 675.783C1100.06 650.849 1215.39 578.049 1204.99 458.716C1201.39 417.65 1183.79 381.916 1151.26 349.382C1112.46 310.849 1071.13 298.449 1018.59 309.516C984.459 316.716 948.592 335.116 909.125 365.649C889.392 380.849 841.259 428.982 819.926 454.583C802.992 474.983 771.658 516.183 761.125 531.783C757.792 536.716 754.725 540.849 754.059 540.849C752.99 540.848 720.992 523.783 719.525 522.316C718.992 521.916 722.459 513.116 727.259 502.849C762.059 428.849 784.859 358.716 793.792 298.183C798.592 266.183 798.592 222.049 793.926 195.516C786.859 156.049 769.392 123.383 744.992 104.316C726.726 90.0493 699.658 79.2489 673.125 75.6489Z" fill="white"/>
</svg>
