<svg width="169" height="77" viewBox="0 0 169 77" fill="none" xmlns="http://www.w3.org/2000/svg">
<path d="M55.459 49.6963C58.1785 49.1135 60.1537 49.1144 62.8408 49.7295L65.0752 50.2471V52.2539C65.0752 53.3868 64.978 54.3585 64.8809 54.4883C64.7514 54.5854 64.2008 54.4554 63.6504 54.1641C63.0675 53.8403 61.5782 53.5815 60.0566 53.4844C57.8552 53.3549 57.1754 53.4523 55.751 54.0674C48.8874 57.0136 48.7581 68.2805 55.4922 71.4209C57.4347 72.3272 61.1248 72.4886 63.5527 71.7441L65.0752 71.291V72.6182C65.0752 73.3628 65.1724 74.3019 65.2695 74.6904C65.4314 75.2731 65.2692 75.4353 64.2012 75.7266C60.5104 76.7626 54.8762 76.3421 51.6387 74.7881C45.7789 71.939 43.5126 64.3303 46.3291 56.8193C47.1709 54.5855 49.8261 51.7368 51.9629 50.7979C52.8046 50.4418 54.3582 49.9229 55.459 49.6963ZM9.71289 54.1318C13.5656 66.5317 14.3749 68.96 14.6016 68.96C14.7315 68.9583 15.3142 67.4694 15.8643 65.625C16.4147 63.8118 17.645 59.8301 18.6162 56.8193C19.5551 53.776 20.4291 50.9912 20.5586 50.5703C20.7528 49.8908 20.8834 49.8584 24.9619 49.8584H29.1377V75.7588H24.2812V65.1719C24.2812 59.3444 24.152 54.7151 24.0225 54.877C23.7608 55.1767 18.8424 70.0298 17.5801 74.2051L17.127 75.7588H12.1084L10.4248 70.6436C9.51829 67.8593 7.99651 63.197 7.05762 60.2832C6.15112 57.4019 5.24473 55.0381 5.11523 55.0381C4.98576 55.0401 4.85645 59.7017 4.85645 65.3984V75.7588H0V49.8584H8.38477L9.71289 54.1318ZM40.4688 75.7588H35.2891V49.8584H40.4688V75.7588ZM74.7871 60.542L80.0645 60.4775L85.3096 60.3809L85.4062 55.1035L85.4707 49.8584H90.3271V75.7588H85.4707L85.4062 70.1582L85.3096 64.5889L80.0645 64.4922L74.7871 64.4277V75.7588H69.6074V49.8584H74.7871V60.542ZM112.343 53.7109L107.26 53.8086L102.145 53.9053V60.3809L106.774 60.4775L111.371 60.5752V64.4277H101.95L102.047 68.0537L102.145 71.7119L107.26 71.8086L112.343 71.9062V75.7588H96.8027L96.9316 75.0146C97.0288 74.6262 97.0937 68.7984 97.0938 62.0645L97.126 49.8584H112.343V53.7109ZM123.351 71.874H133.387V75.7588H118.17V49.8584H123.351V71.874ZM141.804 75.7588H136.624V49.8584H141.804V75.7588ZM154.107 49.8584L158.866 59.4092C161.521 64.654 163.755 68.96 163.885 68.96C164.047 68.9594 164.144 64.6537 164.144 59.4092V49.8584H169V75.7588H162.558L159.255 69.1865C155.371 61.4503 153.169 57.2739 152.78 56.8193C152.618 56.6575 152.488 60.6397 152.488 66.1436V75.7588H147.632V49.8584H154.107ZM85.7949 31.2422C85.7949 37.1669 86.4108 38.5273 89.0332 38.5273C91.72 38.5272 92.2705 37.2963 92.2705 31.4043V26.8721H94.2773L94.1484 31.793C94.0513 36.0659 93.9535 36.9078 93.4033 37.8789C91.6551 40.8574 86.6051 40.9225 84.792 37.9766C84.1121 36.8758 84.0141 36.293 83.917 31.8252L83.7881 26.8721H85.7949V31.2422ZM74.5605 26.8398C75.6289 26.5808 78.8023 26.7103 79.7412 27.0664C80.0648 27.196 80.291 27.6167 80.291 28.1992V29.1055L79.1582 28.6201C75.5323 27.0985 71.55 29.5589 71.5498 33.3467C71.5498 36.4871 73.6221 38.5273 76.7949 38.5273H78.6729V34.3506L77.3125 34.2539C76.1796 34.1891 75.9209 34.0268 75.9209 33.5088C75.9209 32.9585 76.1797 32.8618 77.5068 32.7646C80.6149 32.5704 80.6152 32.57 80.6152 36.2607C80.6152 38.3004 80.4854 39.5305 80.2588 39.6924C79.5465 40.1132 75.5972 40.2106 74.2373 39.8545C67.8918 38.1386 68.1182 28.4913 74.5605 26.8398ZM106.289 26.9365C109.332 27.0336 109.785 27.1311 111.016 27.9404C113.476 29.5592 114.382 32.1488 113.638 35.2891C112.861 38.5914 111.048 39.6925 106.191 39.8867L103.116 39.9844L103.019 33.4121L102.954 26.8066L106.289 26.9365ZM99.3926 33.3145C99.3926 39.4006 99.36 39.7571 98.7773 39.9189C98.4212 40.0161 98.0649 39.9838 97.9678 39.8867C97.8707 39.7878 97.7734 36.81 97.7734 33.2822V26.8721H99.3926V33.3145ZM120.599 26.8721C122.638 26.8721 124.322 27.0012 124.322 27.1631C124.322 28.3286 123.934 28.4902 121.182 28.4902H118.462L118.56 30.3359L118.656 32.2139L121.182 32.3105C123.577 32.4077 123.675 32.4403 123.675 33.1846C123.675 33.9292 123.577 33.9624 121.182 34.0596L118.656 34.1562V38.3652L121.505 38.4619C124.063 38.559 124.322 38.6244 124.322 39.1748C124.322 39.5305 124.225 39.8218 124.096 39.8223C123.934 39.8223 122.314 39.8543 120.437 39.8867L117.037 39.9189L116.94 33.3789L116.876 26.8721H120.599ZM46.6201 38.5273H49.4053C52.0596 38.5273 52.1567 38.5596 52.0596 39.207C51.9624 39.8867 51.8004 39.9191 48.5635 39.8867C46.688 39.8544 45.0704 39.8223 44.9375 39.8223C44.7756 39.8223 44.6777 36.908 44.6777 33.3467V26.8721H46.6201V38.5273ZM58.1143 26.8721C61.837 26.8721 61.8696 26.8718 61.7725 27.584C61.6753 28.2639 61.4807 28.3284 58.8906 28.4902L56.1064 28.6523L56.1387 30.4326L56.1709 32.2139L58.6963 32.3105C61.0917 32.4077 61.1894 32.4403 61.1895 33.1846C61.1895 33.9292 61.0921 33.9624 58.6963 34.0596L56.1709 34.1562V38.3652L59.0205 38.4619C61.6751 38.559 61.8696 38.5919 61.7725 39.207C61.6753 39.822 61.4482 39.8867 58.1143 39.8867H54.5527L54.4551 33.3789L54.3906 26.8721H58.1143ZM104.896 38.5273H106.225C109.721 38.5272 111.598 36.9729 111.89 33.9297C112.084 31.8253 111.404 30.3037 109.785 29.2354C108.943 28.6851 108.231 28.4902 106.807 28.4902H104.896V38.5273ZM83.5293 0.323242C84.0794 0.323349 83.8855 1.10058 83.2383 1.52148C82.3965 2.03949 82.2339 3.39979 82.752 5.43945C83.0109 6.41056 83.1731 7.28487 83.1084 7.34961C83.043 7.41328 82.5896 6.96027 82.1045 6.31348C81.2304 5.18033 79.7736 4.20898 78.8994 4.20898C78.0254 4.20906 77.0539 5.50353 77.0537 6.66895C77.0537 7.57546 77.2481 7.89996 78.0898 8.41797C78.6726 8.7741 79.7739 9.13026 80.5186 9.25977C82.2341 9.51877 82.0721 9.87466 80.1621 10.166C78.2196 10.4574 77.0537 11.4288 77.0537 12.6914C77.0539 15.5401 79.8381 15.6045 82.3633 12.7881L83.2383 11.8174L83.0439 12.7881C82.9145 13.306 82.687 14.1801 82.5898 14.7305C82.2013 16.2521 82.7522 17.7743 83.7559 18.001C86.1192 18.616 87.2524 16.7701 86.3135 13.8887C85.6985 12.0759 85.8607 11.4607 86.6377 12.5938C88.4831 15.1837 91.0731 15.702 91.9473 13.5977C92.2709 12.7885 92.2704 12.497 91.8174 11.8174C91.1699 10.8137 90.4571 10.425 88.7412 10.166C87.3495 9.93938 86.5728 9.3888 87.6729 9.38867C88.8706 9.38867 91.3313 8.3208 91.8174 7.57617C92.1088 7.1553 92.2379 6.53988 92.1084 6.15137C91.9789 5.69811 92.0443 5.50391 92.4004 5.50391C93.6626 5.50431 93.2417 7.86687 91.7852 9L90.9111 9.71289L91.8818 10.5215C93.4359 11.8165 93.4689 13.6951 91.9473 15.2168C91.235 15.929 89.4218 16.0903 88.3857 15.54C87.9001 15.281 87.7704 15.3783 87.5762 16.3818C87.1877 18.5509 85.1159 19.684 83.0439 18.9072C82.3641 18.6482 81.5869 17.0939 81.5869 15.9932C81.5869 15.3135 81.4893 15.1837 81.0361 15.3779C79.0612 16.2521 77.086 15.7987 76.4385 14.3418C75.7589 12.8527 75.9863 11.4611 77.0869 10.5547L78.0898 9.71289L77.0869 8.77344C76.2776 8.02887 76.083 7.57584 76.083 6.54004C76.083 4.0795 78.2198 2.65441 80.3242 3.69043C80.9062 3.9814 81.4234 4.20837 81.4893 4.20898C81.5216 4.20898 81.5869 3.69033 81.5869 3.0752C81.587 2.26598 81.8462 1.65075 82.3965 1.13281C82.8173 0.679711 83.3351 0.323242 83.5293 0.323242ZM86.8311 0C87.608 0.000346742 88.708 0.874387 88.708 1.45703C88.7081 1.68361 89.1296 1.74834 89.8418 1.68359C90.7804 1.55416 91.0073 1.68351 91.3311 2.36328C92.1081 4.11156 91.2013 5.11558 87.7695 6.31348C86.086 6.89623 85.9887 6.79896 85.4707 4.43555C85.0175 2.26669 85.0502 1.1014 85.665 0.518555C85.924 0.227175 86.4749 0 86.8311 0Z" fill="white"/>
</svg>
